<?xml version="1.0" standalone="no"?>
<!DOCTYPE svg PUBLIC "-//W3C//DTD SVG 20010904//EN"
 "http://www.w3.org/TR/2001/REC-SVG-20010904/DTD/svg10.dtd">
<svg version="1.0" xmlns="http://www.w3.org/2000/svg"
 width="225.000000pt" height="225.000000pt" viewBox="0 0 225.000000 225.000000"
 preserveAspectRatio="xMidYMid meet">

<g transform="translate(0.000000,225.000000) scale(0.100000,-0.100000)"
fill="#000000" stroke="none">
<path d="M390 1816 c-142 -32 -254 -137 -289 -271 -5 -22 -29 -200 -51 -395
-58 -493 -53 -555 47 -652 52 -50 99 -68 180 -68 79 0 140 24 191 73 51 49 70
85 116 224 42 124 59 153 73 116 23 -65 93 -113 163 -113 70 0 140 48 163 113
6 15 22 17 142 17 120 0 136 -2 142 -18 23 -64 93 -112 163 -112 70 0 140 48
163 113 14 37 31 8 72 -114 49 -146 55 -158 103 -211 103 -114 285 -123 390
-17 95 94 99 162 42 649 -22 195 -46 373 -51 395 -28 107 -105 195 -217 248
l-67 32 -710 2 c-536 1 -723 -1 -765 -11z m400 -201 c0 -132 7 -161 48 -198
26 -24 81 -36 111 -26 18 7 22 15 19 40 -3 30 -9 36 -58 59 -12 6 -16 32 -18
129 l-3 121 236 0 236 0 -3 -121 c-3 -104 -6 -123 -20 -130 -10 -5 -26 -13
-35 -18 -10 -4 -19 -22 -21 -40 -3 -25 1 -33 19 -40 30 -10 85 2 111 26 41 37
48 66 48 198 l0 127 193 -4 c175 -3 196 -5 242 -26 100 -46 166 -137 179 -247
91 -763 93 -785 58 -852 -41 -78 -120 -115 -201 -94 -97 26 -123 62 -191 267
-28 81 -55 151 -62 156 -7 4 -26 8 -43 8 -24 0 -33 7 -46 32 -8 18 -32 46 -53
62 -34 28 -45 31 -105 31 -59 0 -72 -4 -105 -28 -20 -16 -45 -44 -53 -63 l-17
-34 -131 0 -131 0 -17 34 c-8 19 -33 47 -53 63 -33 24 -46 28 -105 28 -60 0
-71 -3 -105 -31 -21 -16 -45 -44 -53 -62 -13 -25 -22 -32 -46 -32 -16 0 -36
-4 -43 -8 -7 -5 -34 -75 -62 -156 -68 -205 -94 -241 -191 -267 -81 -21 -160
16 -201 94 -30 58 -28 128 16 497 20 168 39 328 42 355 8 68 38 132 82 178 78
81 132 95 355 96 l177 1 0 -125z m83 -645 c77 -61 9 -181 -83 -148 -32 11 -60
52 -60 88 0 12 13 35 29 51 35 35 77 38 114 9z m618 -9 c32 -33 36 -58 14
-100 -30 -59 -120 -59 -151 1 -46 89 65 170 137 99z"/>
<path d="M434 1556 c-32 -14 -74 -64 -74 -88 0 -18 -20 -38 -39 -38 -26 0 -79
-49 -91 -86 -23 -70 18 -155 83 -172 16 -4 33 -14 37 -22 28 -61 40 -77 69
-97 44 -30 98 -30 142 0 29 20 41 36 69 97 4 8 21 18 37 22 65 17 106 102 83
172 -12 37 -60 81 -94 87 -10 2 -22 11 -26 19 -27 59 -38 75 -61 92 -34 25
-96 32 -135 14z m77 -86 c14 -8 19 -21 19 -50 0 -27 7 -47 20 -60 13 -13 33
-20 60 -20 29 0 42 -5 50 -20 18 -34 -4 -60 -50 -60 -27 0 -47 -7 -60 -20 -13
-13 -20 -33 -20 -60 0 -29 -5 -42 -20 -50 -34 -18 -60 4 -60 50 0 53 -27 80
-80 80 -46 0 -68 26 -50 60 8 15 21 20 50 20 53 0 80 27 80 80 0 27 6 42 18
49 21 13 20 13 43 1z"/>
<path d="M1704 1556 c-35 -16 -74 -61 -74 -85 0 -21 -19 -41 -39 -41 -26 0
-79 -49 -91 -86 -23 -70 18 -155 83 -172 16 -4 33 -14 37 -22 28 -61 40 -77
69 -97 44 -30 98 -30 142 0 29 20 41 36 69 97 4 8 21 18 37 22 65 17 106 102
83 172 -12 37 -60 81 -94 87 -10 2 -22 11 -26 19 -39 84 -67 109 -126 116 -22
2 -53 -2 -70 -10z m94 -136 c4 -59 23 -78 81 -82 45 -3 46 -3 46 -38 0 -34 -1
-35 -46 -40 -63 -8 -79 -23 -79 -76 0 -33 -5 -46 -20 -54 -33 -18 -60 4 -60
48 0 55 -19 75 -76 81 -48 6 -49 7 -49 41 0 35 0 35 47 38 56 4 78 27 78 83 0
44 6 51 45 47 28 -3 30 -6 33 -48z"/>
<path d="M1092 1468 c-19 -19 -14 -55 10 -72 19 -13 25 -14 43 -2 24 16 31 51
15 72 -15 17 -52 18 -68 2z"/>
<path d="M962 1288 c-15 -15 -15 -51 0 -66 17 -17 309 -17 326 0 7 7 12 21 12
33 0 41 -17 45 -175 45 -104 0 -155 -4 -163 -12z"/>
<path d="M1040 1110 c-25 -25 -25 -42 -2 -63 27 -25 153 -24 175 1 22 24 21
38 -3 62 -16 16 -33 20 -85 20 -52 0 -69 -4 -85 -20z"/>
</g>
</svg>
